<?xml version="1.0"?>
<svg xmlns="http://www.w3.org/2000/svg" viewBox="0 0 64 64" width="512" height="512"><path d="m13.531 41.061-4.531 19.939h4l4.241-18.659z" fill="#bfbfbf"/><path d="m28.759 42.341 4.241 18.659h4l-4.531-19.939z" fill="#bfbfbf"/><path d="m33.072 6.619c-4.885-4.869-12.265-4.519-19.172-.687-8.067 4.478-12.451 12.018-8.276 20.068h.969l28.965-16.079a14.689 14.689 0 0 0 -2.486-3.302z" fill="#bfbfbf"/><path d="m21 42.921v-2.921h4v2.921c8.445-.621 15-5.21 15-13.921h-34c0 8.711 6.555 13.3 15 13.921z" fill="#db4b40"/><g fill="#bfbfbf"><path d="m41.5 29a1.5 1.5 0 0 0 1.5-1.5 1.5 1.5 0 0 0 -1.5-1.5h-37a1.5 1.5 0 0 0 -1.5 1.5 1.5 1.5 0 0 0 1.5 1.5z"/><path d="m21 40h4v21h-4z"/><path d="m14.818 53h6.182v-4h-5.273z"/><path d="m30.273 49h-5.273v4h6.182z"/></g><path d="m59.17 3a1.828 1.828 0 0 0 -1.67 1.085l-.66 1.485a15.835 15.835 0 0 0 0 12.86l.66 1.485a1.828 1.828 0 0 0 1.67 1.085 1.827 1.827 0 0 0 1.67-2.57 15.835 15.835 0 0 1 0-12.86 1.827 1.827 0 0 0 -1.67-2.57z" fill="#bf792c"/><path d="m53.89 30.846a1.83 1.83 0 0 0 1.1-1.662l.01-1.625a15.839 15.839 0 0 0 -5.137-11.79l-1.2-1.1a1.827 1.827 0 0 0 -2.469 2.7 15.836 15.836 0 0 1 5.137 11.79 1.828 1.828 0 0 0 2.559 1.687z" fill="#bf792c"/><path d="m60.84 5.57a15.835 15.835 0 0 0 0 12.86 1.827 1.827 0 0 1 -1.67 2.57 1.828 1.828 0 0 1 -1.67-1.085l-.66-1.485a15.835 15.835 0 0 1 0-12.86l.66-1.485a1.828 1.828 0 0 1 1.67-1.085 1.827 1.827 0 0 1 1.67 2.57z" fill="#bf792c"/><path d="m46.2 17.367a15.831 15.831 0 0 1 5.136 11.79 1.829 1.829 0 0 0 2.558 1.689 1.83 1.83 0 0 0 1.1-1.662l.006-1.625a15.839 15.839 0 0 0 -5.137-11.79l-1.2-1.1a1.825 1.825 0 0 0 -1.964-.328 1.827 1.827 0 0 0 -.499 3.026z" fill="#bf792c"/><path d="m35.124 15.436a8.227 8.227 0 0 0 -6.134 1.572l-1.59 1.192 1.2 1.6 1.59-1.193a6.238 6.238 0 0 1 4.651-1.191 8.228 8.228 0 0 0 7.526-2.895l-1.537-1.279a6.213 6.213 0 0 1 -5.706 2.194z" fill="#f9a419"/><path d="m42.586 8h2.828v2h-2.828z" fill="#f9a419" transform="matrix(.70710678 -.70710678 .70710678 .70710678 6.523 33.749)"/><path d="m36.477 20.732-.848.339.742 1.858.848-.339a8.966 8.966 0 0 1 7.334.3l.894-1.79a10.963 10.963 0 0 0 -8.97-.368z" fill="#f9a419"/><path d="m59 25h2v2h-2z" fill="#f9a419"/><rect fill="#fffafa" height="2" rx="1" transform="matrix(.86824211 -.49614074 .49614074 .86824211 -5.005 11.155)" width="24.187" x="6.407" y="14"/><path d="m15.26 51.055 1.981-8.714-3.71-1.28-.079.35z" fill="#b0b0b0"/><path d="m32.548 41.411-.079-.35-3.71 1.28 1.981 8.714z" fill="#b0b0b0"/><path d="m39.952 30c.02-.331.048-.656.048-1h-34c0 .344.028.669.048 1z" fill="#c24239"/></svg>
