<svg height="512" viewBox="0 0 58 57" width="512" xmlns="http://www.w3.org/2000/svg"><g id="Page-1" fill="none" fill-rule="evenodd"><g id="009---Champagne" fill-rule="nonzero" transform="translate(-1)"><path id="Shape" d="m12.4 50.965c3.811 1.315 6.4 3.229 6.033 4.612-.423 1.605-4.662 1.872-9.467.605s-8.36-3.592-7.936-5.197c.37-1.385 3.559-1.771 7.523-1.035z" fill="#67b9cc"/><path id="Shape" d="m51.447 49.95c3.964-.736 7.158-.348 7.523 1.035.424 1.605-3.131 3.929-7.937 5.2s-9.044 1-9.467-.605c-.365-1.383 2.222-3.3 6.033-4.612z" fill="#67b9cc"/><path id="Shape" d="m11.7880871 4.4554846h14c.5522848 0 1 .44771525 1 1v22c0 3.3137085-2.6862915 6-6 6h-4c-3.3137085 0-6-2.6862915-6-6v-22c0-.55228475.4477153-1 1-1z" fill="#67b9cc" transform="matrix(.967 .255 -.255 .967 5.457 -4.166)"/><path id="Shape" d="m10.665971 32.6610899h4v18c0 .5522847-.4477153 1-1 1h-2c-.5522848 0-1-.4477153-1-1z" fill="#2fa8cc" transform="matrix(.967 .255 -.255 .967 11.174 -1.836)"/><path id="Shape" d="m39.2130702 4.45499829h4c3.3137085 0 6 2.6862915 6 6.00000001v22c0 .5522847-.4477153 1-1 1h-14c-.5522848 0-1-.4477153-1-1v-22c0-3.31370851 2.6862915-6.00000001 6-6.00000001z" fill="#67b9cc" transform="matrix(-.967 .255 -.255 -.967 85.898 26.77)"/><path id="Shape" d="m46.334954 32.661393h2c.5522847 0 1 .4477152 1 1v18h-4v-18c0-.5522848.4477152-1 1-1z" fill="#2fa8cc" transform="matrix(-.967 .255 -.255 -.967 103.859 70.853)"/><path id="Shape" d="m27.22 18.35-2.87 10.86c-.4039901 1.5398696-1.4033911 2.8560614-2.7781712 3.658798-1.3747801.8027365-3.012225 1.0262036-4.5518288.621202l-3.86-1.02c-3.20699542-.8473339-5.12208454-4.1316222-4.28-7.34l.14-.52c3.3502794.7129863 6.7951802-.6998994 8.68-3.56 2.64-3.79 6.85-3.43 9.52-2.7z" fill="#f9eab0"/><path id="Shape" d="m46.84 32.47-3.86 1.02c-1.5396038.4050016-3.1770487.1815345-4.5518288-.621202-1.3747801-.8027366-2.3741811-2.1189284-2.7781712-3.658798l-2.87-10.86c2.67-.73 6.88-1.09 9.52 2.7 1.8848198 2.8601006 5.3297206 4.2729863 8.68 3.56l.14.52c.8420845 3.2083778-1.0730046 6.4926661-4.28 7.34z" fill="#f9eab0"/><g fill="#f3d55b"><circle id="Oval" cx="22" cy="23" r="1"/><circle id="Oval" cx="20" cy="28" r="1"/><circle id="Oval" cx="22" cy="13" r="1"/><circle id="Oval" cx="21" cy="8" r="1"/><circle id="Oval" cx="26" cy="1" r="1"/><circle id="Oval" cx="14" cy="29" r="1"/><circle id="Oval" cx="38" cy="23" r="1"/><circle id="Oval" cx="40" cy="28" r="1"/><circle id="Oval" cx="38" cy="13" r="1"/><circle id="Oval" cx="39" cy="8" r="1"/><circle id="Oval" cx="34" cy="1" r="1"/><circle id="Oval" cx="46" cy="29" r="1"/></g><path id="Shape" d="m30.851 56.582c-.2038245.262599-.5175806.4162455-.85.4162455s-.6461755-.1536465-.85-.4162455l-8.941-11.325c-1.0451247-1.3559783-1.4425004-3.1023113-1.087-4.777.5266853-2.8276316 3.1474875-4.7686598 6.0058285-4.4480589s4.9840055 2.7940084 4.8711715 5.6680589c-.112834-2.8740505 2.0128305-5.347458 4.8711715-5.6680589s5.4791432 1.6204273 6.0058285 4.4480589c.3555004 1.6746887-.0418753 3.4210217-1.087 4.777z" fill="#ff5364"/></g></g></svg>