<svg height="512" viewBox="0 0 64 64" width="512" xmlns="http://www.w3.org/2000/svg"><g id="Flat"><g id="Stroke_copy_2" data-name="Stroke copy 2"><path d="m57.326 56.29-3.864 1.036-2.14-11.85 1.932-.518z" fill="#48cae4"/><path d="m57.33 56.29-3.87 1.04-2.14-11.85 1.93-.52 1.26 3.51a4.515 4.515 0 0 1 -.94.91l.51 2.81a1.979 1.979 0 0 0 2.35 1.6z" fill="#00b4d8"/><path d="m53.065 48.115a4.7 4.7 0 0 1 -5.82-3.607l-2.185-10.808 7.727-2.07 3.513 10.451a4.7 4.7 0 0 1 -3.235 6.034z" fill="#ade8f4"/><path d="m56.18 45.4a4.7 4.7 0 0 1 -8.94-.89l-2.18-10.81 2.85-.77 1.83 9.08a4.7 4.7 0 0 0 5.82 3.6 6.452 6.452 0 0 0 .62-.21z" fill="#48cae4"/><path d="m54.653 55.774h2a4 4 0 0 1 4 4 0 0 0 0 1 0 0h-10a0 0 0 0 1 0 0 4 4 0 0 1 4-4z" fill="#ade8f4" transform="matrix(.966 -.259 .259 .966 -13.057 16.373)"/><path d="m53.06 48.11a4.7 4.7 0 0 1 -5.82-3.6l-1.06-5.26 1.18-.94a3.288 3.288 0 0 1 3.52-.37 3.342 3.342 0 0 0 1.47.35 3.287 3.287 0 0 0 2.33-.97l.02-.02 1.6 4.78a4.694 4.694 0 0 1 -3.24 6.03z" fill="#ef5350"/><path d="m56.18 45.4a4.7 4.7 0 0 1 -8.94-.89l-1.06-5.26 1.18-.94a3.286 3.286 0 0 1 1.5-.67l.88 4.37a4.7 4.7 0 0 0 5.82 3.6 6.452 6.452 0 0 0 .62-.21z" fill="#e53935"/><path d="m61 58.41-9.66 2.59a3.978 3.978 0 0 1 1.13-3.96 3.951 3.951 0 0 0 3.73.92l4.01-1.07a3.875 3.875 0 0 1 .79 1.52z" fill="#48cae4"/><path d="m29.794 51.29 3.863 1.036 2.14-11.85-1.932-.518z" fill="#48cae4"/><path d="m35.8 40.48-.67 3.69a4.765 4.765 0 0 1 -1.51.03l-.72 2.02a2.992 2.992 0 0 0 1.22 3.55l-.46 2.56-3.87-1.04 4.08-11.33z" fill="#00b4d8"/><path d="m26.467 50.774h10a0 0 0 0 1 0 0 4 4 0 0 1 -4 4h-2a4 4 0 0 1 -4-4 0 0 0 0 1 0 0z" fill="#ade8f4" transform="matrix(-.966 -.259 .259 -.966 48.202 111.894)"/><path d="m35.92 54.97a4.055 4.055 0 0 1 -.14 1.03l-9.66-2.59a3.958 3.958 0 0 1 2.7-2.79 3 3 0 0 0 2.2 2.57l4.87 1.3a3.866 3.866 0 0 1 .03.48z" fill="#48cae4"/><path d="m34.055 43.115a4.7 4.7 0 0 0 5.82-3.607l2.185-10.808-7.728-2.07-3.514 10.451a4.7 4.7 0 0 0 3.237 6.034z" fill="#ade8f4"/><path d="m39.15 41.21a4.692 4.692 0 0 1 -8.33-4.13l3.51-10.46 2.81.76-2.57 7.64a4.7 4.7 0 0 0 3.23 6.04 4.48 4.48 0 0 0 1.35.15z" fill="#48cae4"/><path d="m40.78 35-.91 4.51a4.694 4.694 0 1 1 -9.05-2.43l2.08-6.19.14-.04a3.4 3.4 0 0 1 4.1 2.01 3.415 3.415 0 0 0 3.17 2.14z" fill="#ef5350"/><path d="m39.15 41.21a4.692 4.692 0 0 1 -8.33-4.13l2.08-6.19.14-.04a3.4 3.4 0 0 1 2.79.42l-1.26 3.75a4.7 4.7 0 0 0 3.23 6.04 4.48 4.48 0 0 0 1.35.15z" fill="#e53935"/><path d="m40.872 20.085 4.915 4.915 4.913-4.915a2.979 2.979 0 0 0 0-4.212 2.978 2.978 0 0 0 -4.213 0l-.7.7-.7-.7a2.978 2.978 0 0 0 -4.213 0 2.979 2.979 0 0 0 -.002 4.212z" fill="#ef5350"/><path d="m49.52 21.27-3.73 3.73-4.92-4.91a2.994 2.994 0 0 1 0-4.22 2.952 2.952 0 0 1 2.3-.86 2.718 2.718 0 0 0 -.17.97 3 3 0 0 0 .87 2.11l2.09 2.08a3.994 3.994 0 0 0 3.56 1.1z" fill="#e53935"/><path d="m17 17.39v-10.39h-8v10.39a12.462 12.462 0 0 1 -3 8.11 12.462 12.462 0 0 0 -3 8.11v27.39h20v-27.39a12.462 12.462 0 0 0 -3-8.11 12.462 12.462 0 0 1 -3-8.11z" fill="#ffd000"/><path d="m23 47v14h-20v-27.39a12.367 12.367 0 0 1 .77-4.32 12.536 12.536 0 0 1 2.23-3.79 12.452 12.452 0 0 0 3-8.11v-10.39h8v3h-3a3 3 0 0 0 -3 3v5.19a18.568 18.568 0 0 1 -1.5 7.31 18.568 18.568 0 0 0 -1.5 7.31v4.19a10 10 0 0 0 10 10z" fill="#ffb700"/><path d="m8 3h10v4h-10z" fill="#ef5350"/><path d="m3 37h20v16h-20z" fill="#e53935"/><path d="m18.84 23.91-5.84 4.09-5.84-4.09a12.485 12.485 0 0 0 1.72-4.79l4.12 2.88 4.12-2.88a11.988 11.988 0 0 0 .65 2.59 12.411 12.411 0 0 0 1.07 2.2z" fill="#ef5350"/><path d="m23 47v6h-20v-16h5a10 10 0 0 0 10 10z" fill="#c62828"/><path d="m10.85 20.5a18.166 18.166 0 0 1 -1.35 5c-.01.01-.01.03-.02.04l-2.32-1.63a12.485 12.485 0 0 0 1.72-4.79z" fill="#e53935"/><path d="m9.013 45.068 3.932 3.932 3.932-3.932a2.384 2.384 0 0 0 0-3.37 2.383 2.383 0 0 0 -3.371 0l-.561.562-.562-.562a2.382 2.382 0 0 0 -3.37 0 2.382 2.382 0 0 0 0 3.37z" fill="#ff7373"/><path d="m15.32 46.63-2.38 2.37-3.93-3.93a2.378 2.378 0 0 1 0-3.37 1 1 0 0 1 .11-.1 9.982 9.982 0 0 0 6.2 5.03z" fill="#ef5350"/><path d="m18 5v2h-10v-4h2a2.006 2.006 0 0 0 2 2z" fill="#e53935"/><g fill="#ffea00"><path d="m48 28a1 1 0 0 1 -.5-1.868l7-4a1 1 0 0 1 .992 1.736l-7 4a.988.988 0 0 1 -.492.132z"/><path d="m40 25a1 1 0 0 1 -.554-.168l-3-2a1 1 0 0 1 1.11-1.664l3 2a1 1 0 0 1 -.556 1.832z"/><circle cx="58" cy="21" r="1"/><circle cx="60" cy="28" r="1"/><circle cx="34" cy="20" r="1"/><path d="m56 29h-2a1 1 0 0 1 0-2h2a1 1 0 0 1 0 2z"/></g></g></g></svg>